<svg width="25" height="24" viewBox="0 0 25 24" fill="none" xmlns="http://www.w3.org/2000/svg">
<path fill-rule="evenodd" clip-rule="evenodd" d="M12.7505 8.5C11.7855 8.5 11.0005 9.285 11.0005 10.251C11.0005 11.216 11.7855 12 12.7505 12C13.7155 12 14.5005 11.216 14.5005 10.251C14.5005 9.285 13.7155 8.5 12.7505 8.5ZM12.7505 13.5C10.9585 13.5 9.50049 12.043 9.50049 10.251C9.50049 8.458 10.9585 7 12.7505 7C14.5425 7 16.0005 8.458 16.0005 10.251C16.0005 12.043 14.5425 13.5 12.7505 13.5Z" fill="white"/>
<mask id="mask0_1324_2054" style="mask-type:luminance" maskUnits="userSpaceOnUse" x="4" y="2" width="17" height="20">
<path fill-rule="evenodd" clip-rule="evenodd" d="M4.5 2H20.9995V21.5H4.5V2Z" fill="white"/>
</mask>
<g mask="url(#mask0_1324_2054)">
<path fill-rule="evenodd" clip-rule="evenodd" d="M12.7495 3.5C9.02751 3.5 5.99951 6.557 5.99951 10.313C5.99951 15.092 11.6235 19.748 12.7495 19.996C13.8755 19.747 19.4995 15.091 19.4995 10.313C19.4995 6.557 16.4715 3.5 12.7495 3.5ZM12.7495 21.5C10.9555 21.5 4.49951 15.948 4.49951 10.313C4.49951 5.729 8.20051 2 12.7495 2C17.2985 2 20.9995 5.729 20.9995 10.313C20.9995 15.948 14.5435 21.5 12.7495 21.5Z" fill="white"/>
</g>
</svg>
