<svg width="80" height="80" viewBox="0 0 80 80" fill="none" xmlns="http://www.w3.org/2000/svg">
<path d="M62.87 29.1708L41.2153 50.827L39.9997 52.0427L33.481 58.5599L25.7466 50.827L17.1294 42.2083L24.8638 34.4739L33.481 43.0927L39.9997 36.5739L55.1356 21.438L62.87 29.1708Z" fill="#22C55E"/>
<path d="M40 0C17.9094 0 0 17.9094 0 40C0 62.0906 17.9094 80 40 80C62.0906 80 80 62.0906 80 40C80 17.9094 62.0906 0 40 0ZM40 77.1984C19.4891 77.1984 2.80156 60.5109 2.80156 40C2.80156 19.4891 19.4891 2.80156 40 2.80156C60.5109 2.80156 77.1984 19.4891 77.1984 40C77.1984 60.5109 60.5109 77.1984 40 77.1984Z" fill="#22C55E"/>
</svg>
